<?xml version="1.0" standalone="no"?><!DOCTYPE svg PUBLIC "-//W3C//DTD SVG 1.1//EN" "http://www.w3.org/Graphics/SVG/1.1/DTD/svg11.dtd"><svg t="1529476770801" class="icon" style="" viewBox="0 0 1024 1024" version="1.1" xmlns="http://www.w3.org/2000/svg" p-id="1578" xmlns:xlink="http://www.w3.org/1999/xlink" width="200" height="200"><defs><style type="text/css"></style></defs><path d="M599.320765 121.289414c-122.849956 0-222.803435 99.952456-222.803435 222.855624 0 84.896552 47.78226 158.868287 117.936039 196.403159-145.95621 44.904723-252.286933 180.928722-252.286933 341.41895 0 11.761881 9.513678 21.224394 21.275559 21.224394 11.710716 0 21.224394-9.515724 21.224394-21.224394 0-173.454494 141.147694-314.704518 313.084625-314.704518 1.515516 0.104377 2.979868-0.419556 4.391007-0.523933 121.492028-1.619894 219.927945-100.788497 219.927945-222.645846C822.123176 221.24187 722.223932 121.289414 599.320765 121.289414L599.320765 121.289414zM599.320765 524.342096c-99.429547 0-180.25027-80.818677-180.25027-180.197058 0-99.429547 80.820724-180.25027 180.25027-180.25027 99.378381 0 180.25027 80.820724 180.25027 180.25027C779.6222 443.523419 698.750311 524.342096 599.320765 524.342096L599.320765 524.342096z" p-id="1579"></path><path d="M852.234985 629.78459c-8.258081-8.260128-21.747303-8.260128-30.111808-0.104377-8.258081 8.362458-8.258081 21.851681 0 30.111808 59.231009 59.438741 91.850941 138.323369 91.850941 222.175125 0 11.761881 9.56689 21.224394 21.275559 21.224394 11.815093 0 21.277606-9.515724 21.277606-21.224394C956.526259 786.719852 919.515321 697.16828 852.234985 629.78459L852.234985 629.78459z" p-id="1580"></path><path d="M374.321314 529.779945c0 0 0-0.053212 0-0.104377 0 0 0-0.053212 0-0.104377 0-11.710716-9.513678-21.224394-21.275559-21.224394-77.213569 0-139.996474-67.01837-139.996474-149.512199 0-82.491783 62.782905-149.510152 139.996474-149.510152 11.81407 0 21.275559-9.56689 21.275559-21.277606 0-11.81407-9.513678-21.275559-21.275559-21.275559-100.631932 0-182.497451 86.203314-182.497451 192.116529 0 70.625524 36.540218 132.312468 90.594321 165.664064C146.186454 565.222155 63.014172 679.760818 63.014172 814.530244c0 11.761881 9.513678 21.223371 21.275559 21.223371 11.761881 0 21.277606-9.513678 21.277606-21.223371 0-145.278781 110.982674-263.422552 247.424182-263.422552C364.807636 551.055504 374.321314 541.592992 374.321314 529.779945L374.321314 529.779945z" p-id="1581"></path></svg>